<?xml version="1.0" encoding="utf-8"?>
<!-- Generator: Adobe Illustrator 16.0.4, SVG Export Plug-In . SVG Version: 6.00 Build 0)  -->
<!DOCTYPE svg PUBLIC "-//W3C//DTD SVG 1.1//EN" "http://www.w3.org/Graphics/SVG/1.1/DTD/svg11.dtd">
<svg version="1.1" id="Ebene_1" xmlns="http://www.w3.org/2000/svg" xmlns:xlink="http://www.w3.org/1999/xlink" x="0px" y="0px"
	 width="375.532px" height="314.036px" viewBox="0 0 375.532 314.036" enable-background="new 0 0 375.532 314.036"
	 xml:space="preserve">
<g display="none">
	
		<image display="inline" overflow="visible" opacity="0.65" width="1046" height="220" xlink:href="7D6BF5B4F9E773BB.png"  transform="matrix(0.24 0 0 0.24 66.0024 201.2075)">
	</image>
	<g display="inline">
		<g>
			<g>
				<path fill="#E30613" d="M104.904,215.761c4.937,0,8.885,2.876,8.885,10.234v20.858h-10.283v-17.096
					c0-3.043-0.945-4.039-2.756-4.039c-2.139,0-3.496,1.383-3.496,5.09v16.045h-9.954v-17.096c0-3.043-0.946-4.039-2.756-4.039
					c-2.139,0-3.496,1.383-3.496,5.09v16.045H70.763V216.59h9.954v4.149h0.082c1.605-2.82,4.114-4.979,8.392-4.979
					c4.442,0,6.252,2.047,7.445,5.034C98.036,218.029,100.75,215.761,104.904,215.761 M104.904,214.686
					c-3.346,0-6.221,1.395-8.14,3.891c-1.244-2.123-3.322-3.891-7.573-3.891c-2.989,0-5.467,0.986-7.398,2.938v-1.034v-1.076h-1.076
					h-9.954h-1.076v1.076v30.264v1.076h1.076h10.284h1.076v-1.076v-16.045c0-4.014,1.635-4.014,2.42-4.014
					c0.788,0,1.68,0,1.68,2.963v17.096v1.076h1.076h9.954h1.076v-1.076v-16.045c0-4.014,1.635-4.014,2.42-4.014
					c0.788,0,1.68,0,1.68,2.963v17.096v1.076h1.076h10.283h1.076v-1.076v-20.858C114.864,218.808,111.234,214.686,104.904,214.686
					L104.904,214.686z"/>
			</g>
			<g>
				<path fill="#E30613" d="M131.062,215.374c9.954,0,17.276,4.481,17.112,19.584h-22.623c0,2.158,1.687,5.479,6.211,5.479
					c2.675,0,4.237-0.774,5.347-2.655h10.942c-0.782,3.153-2.509,5.753-5.142,7.524c-2.633,1.77-6.171,2.766-10.9,2.766
					c-10.818,0-16.987-5.312-16.987-16.376C115.022,221.238,120.944,215.374,131.062,215.374 M125.551,227.987h12.257
					c-0.205-3.264-2.551-5.311-6.087-5.311C128.142,222.676,126.085,224.17,125.551,227.987 M131.062,214.297
					c-10.717,0-17.116,6.504-17.116,17.397c0,11.417,6.246,17.452,18.063,17.452c4.787,0,8.548-0.965,11.5-2.949
					c2.797-1.882,4.729-4.703,5.585-8.158l0.331-1.334h-1.375h-10.942h-0.614l-0.312,0.528c-0.914,1.55-2.112,2.126-4.42,2.126
					c-3.257,0-4.547-1.898-4.965-3.326h21.377h1.064l0.012-1.064c0.08-7.386-1.542-12.655-4.958-16.109
					C141.255,215.79,136.928,214.297,131.062,214.297L131.062,214.297z M126.87,226.911c0.641-2.226,2.118-3.158,4.852-3.158
					c2.522,0,4.254,1.159,4.822,3.158H126.87L126.87,226.911z"/>
			</g>
			<g>
				<path fill="#E30613" d="M183.712,215.761c4.936,0,8.885,2.876,8.885,10.234v20.858h-10.283v-17.096
					c0-3.043-0.946-4.039-2.756-4.039c-2.14,0-3.497,1.383-3.497,5.09v16.045h-9.954v-17.096c0-3.043-0.946-4.039-2.756-4.039
					c-2.139,0-3.497,1.383-3.497,5.09v16.045h-10.283V216.59h9.955v4.149h0.081c1.605-2.82,4.114-4.979,8.392-4.979
					c4.442,0,6.253,2.047,7.445,5.034C176.843,218.029,179.558,215.761,183.712,215.761 M183.712,214.686
					c-3.347,0-6.222,1.395-8.141,3.89c-1.243-2.122-3.322-3.89-7.573-3.89c-2.989,0-5.466,0.985-7.397,2.938v-1.033v-1.076h-1.076
					h-9.955h-1.076v1.076v30.264v1.076h1.076h10.283h1.076v-1.076v-16.045c0-4.014,1.635-4.014,2.421-4.014
					c0.788,0,1.68,0,1.68,2.963v17.096v1.076h1.076h9.954h1.076v-1.076v-16.045c0-4.014,1.635-4.014,2.421-4.014
					c0.788,0,1.68,0,1.68,2.963v17.096v1.076h1.076h10.283h1.075v-1.076v-20.858C193.672,218.808,190.042,214.686,183.712,214.686
					L183.712,214.686z"/>
			</g>
			<g>
				<path fill="#E30613" d="M204.524,205.969v14.051h0.081c1.771-2.876,4.731-4.259,8.927-4.259c6.663,0,12.792,4.924,12.792,16.155
					c0,11.23-6.129,16.154-12.792,16.154c-4.565,0-7.403-1.55-9.255-4.426h-0.082v3.209h-9.954v-40.885H204.524 M210.159,238.776
					c3.99,0,5.636-2.876,5.636-6.859c0-3.874-1.893-6.861-5.594-6.861c-3.99,0-5.677,2.601-5.677,6.861
					C204.524,236.231,206.21,238.776,210.159,238.776 M205.6,204.893h-1.076h-10.283h-1.076v1.076v40.885v1.076h1.076h9.954h1.075
					v-1.076v-0.396c2.047,1.805,4.774,2.689,8.262,2.689c6.397,0,13.867-4.513,13.867-17.23c0-5.469-1.442-9.967-4.172-13.008
					c-2.444-2.724-5.888-4.223-9.695-4.223c-3.324,0-5.98,0.845-7.932,2.518v-11.234V204.893L205.6,204.893z M210.159,237.7
					c-1.957,0-4.559-0.599-4.559-5.783c0-5.186,2.625-5.785,4.601-5.785c4.192,0,4.519,4.428,4.519,5.785
					C214.719,235.754,213.184,237.7,210.159,237.7L210.159,237.7z"/>
			</g>
			<g>
				<g>
					<path fill="#E30613" d="M301.183,215.761c5.677,0,9.954,3.43,9.954,11.839v19.254h-10.284v-15.657
						c0-3.817-1.521-5.478-3.947-5.478c-2.716,0-4.771,2.158-4.771,7.193v13.941H281.85V216.59h9.954v3.763h0.082
						C292.956,218.417,296.247,215.761,301.183,215.761 M301.183,214.686c-3.507,0-6.398,1.271-8.304,2.873v-0.969v-1.076h-1.075
						h-9.954h-1.076v1.076v30.264v1.076h1.076h10.284h1.075v-1.076v-13.941c0-2.285,0.48-6.117,3.696-6.117
						c0.785,0,2.872,0,2.872,4.401v15.657v1.076h1.075h10.284h1.076v-1.076V227.6C312.213,219.393,308.193,214.686,301.183,214.686
						L301.183,214.686z"/>
				</g>
				<g>
					<path fill="#E30613" d="M265.646,215.374c10.488,0,14.643,3.153,14.643,12.171l0.172,14.606c0,2.323,0,4.7,0,4.7l-9.756,0.003
						c0,0-0.329-1.882-0.369-2.987c-2.305,2.876-5.8,4.204-11.271,4.204c-6.91,0-11.27-2.49-11.27-10.234
						c0-5.533,2.92-9.074,10.53-9.517l8.678-0.554c2.057-0.166,2.756-0.829,2.756-2.489c0-1.991-1.85-2.932-4.771-2.932
						c-2.345,0-4.689,0.497-5.183,3.43h-9.253v2.71c-1.812-0.607-3.333-1.105-5.144-1.105c-3.66,0-7.567,1.604-7.567,8.132v11.343
						h-10.284V216.59h9.954v5.81h0.082c2.674-4.703,6.047-6.639,9.584-6.639c1.111,0,2.264,0.11,3.375,0.331v5.601
						c0.747-1.868,1.835-3.225,3.411-4.216C256.473,215.927,260.216,215.374,265.646,215.374 M262.725,240.768
						c3.455,0,7.28-1.162,7.28-6.362v-1.328c-1.727,0.497-4.647,0.83-8.31,1.272c-1.891,0.221-2.796,1.052-2.796,2.988
						C258.9,239.441,260.174,240.768,262.725,240.768 M265.646,214.297c-6.015,0-9.678,0.678-12.248,2.265
						c-0.659,0.414-1.248,0.892-1.771,1.435v-1.904v-0.883l-0.865-0.172c-1.176-0.233-2.382-0.352-3.585-0.352
						c-2.397,0-5.643,0.83-8.591,4.367v-2.463v-1.076h-1.075h-9.954h-1.076v1.076v30.264v1.076h1.076h10.284h1.075v-1.076v-11.343
						c0-4.748,2.124-7.056,6.492-7.056c1.671,0,3.122,0.486,4.802,1.049l0.221,0.074c-2.468,1.773-3.712,4.532-3.712,8.258
						c0,7.61,4.038,11.311,12.345,11.311c4.603,0,7.988-0.94,10.448-2.932c0.069,0.46,0.127,0.792,0.133,0.824l0.155,0.891h0.904
						l9.756-0.004h1.075v-1.075v-4.7l-0.172-14.619C281.364,218.012,276.958,214.297,265.646,214.297L265.646,214.297z
						 M251.627,226.85h8.178h0.91l0.15-0.896c0.307-1.822,1.462-2.533,4.122-2.533c1.686,0,3.694,0.322,3.694,1.856
						c0,0.849,0,1.274-1.767,1.417l-8.659,0.553c-2.67,0.155-4.881,0.689-6.629,1.6v-0.361V226.85L251.627,226.85z M262.725,239.692
						c-1.851,0-2.75-0.77-2.75-2.354c0-1.322,0.414-1.753,1.846-1.92l0.668-0.08c2.605-0.314,4.793-0.578,6.441-0.903
						C268.929,235.772,268.884,239.692,262.725,239.692L262.725,239.692z"/>
				</g>
			</g>
		</g>
	</g>
</g>
<path display="none" d="M222.471,184.02l-21.668-38.326c-4.364-7.692-7.224-7.791-9.966-3.16
	c-3.243,5.471-3.314,12.439,1.994,21.811l14.455,25.489h18.49l-3.297-5.826L222.471,184.02z"/>
<path display="none" d="M621.012,155.905l-21.668-38.326c-4.365-7.692-7.225-7.791-9.967-3.16
	c-3.242,5.471-3.314,12.439,1.994,21.811l14.455,25.49h18.49l-3.297-5.827L621.012,155.905z"/>
<path display="none" fill="none" d="M533.387,188.939l-0.025-0.045l-25.486-44.86c-2.656-4.688-4.838-6.779-7.072-6.779
	c-1.646,0-3.145,1.177-4.582,3.599c-3.758,6.336-3.11,13.791,1.98,22.791l14.348,25.247h-28.25l-0.107-0.206l-19.965-35.156
	l0.025-0.044l13.905-23.48l0.075,0.133l7.604,13.401l-0.619-5.341c-1.882-13.114-0.098-24.043,5.453-33.411
	c3.518-5.943,6.91-8.833,10.369-8.833c1.988,0,4.119,0.891,6.703,2.803l1.961,1.45l-0.418-2.402
	c-1.592-9.137-0.877-18.527,2.014-26.444l0.643-1.698l0.094,0.162l14.906,25.858l-0.174-0.019c-0.387-0.041-1.025-0.101-1.455-0.065
	c-1.498,0.165-3.281,1.658-4.537,3.805c-3.762,6.346-3.113,13.8,1.984,22.789l37.867,66.729h-0.152L533.387,188.939z
	 M500.803,137.077c2.305,0,4.535,2.118,7.227,6.869l25.461,44.815l26.832-0.019l-37.717-66.463
	c-5.133-9.05-5.781-16.562-1.982-22.967c1.283-2.193,3.117-3.721,4.672-3.892c0.383-0.03,0.979,0.023,1.32,0.05l-14.641-25.397
	l-0.51,1.348c-2.879,7.887-3.592,17.246-2.004,26.352l0.492,2.84l-2.316-1.714c-2.553-1.889-4.648-2.768-6.598-2.768
	c-3.391,0-6.732,2.86-10.217,8.745c-5.529,9.332-7.306,20.224-5.43,33.298l0.72,6.207l-0.366-0.641l-7.592-13.383l-13.723,23.173
	l19.971,35.183h27.842l-14.197-24.981c-5.125-9.062-5.772-16.574-1.979-22.969C497.54,138.283,499.088,137.077,500.803,137.077z"/>
<linearGradient id="SVGID_1_" gradientUnits="userSpaceOnUse" x1="513.4712" y1="79.5796" x2="586.2595" y2="125.5605">
	<stop  offset="0" style="stop-color:#C6C6C6"/>
	<stop  offset="0.0149" style="stop-color:#C9C9C9"/>
	<stop  offset="0.2315" style="stop-color:#F0F0F0"/>
	<stop  offset="0.3374" style="stop-color:#FFFFFF"/>
	<stop  offset="0.6319" style="stop-color:#DADADA"/>
	<stop  offset="1" style="stop-color:#FFFFFF"/>
</linearGradient>
<path display="none" fill="url(#SVGID_1_)" d="M525.305,95.509c0.5-0.039,0.904-0.023,1.232,0.012L511.87,70.113l-0.488,1.277
	c0,0.001,0,0.003,0,0.004l13.922,24.116L525.305,95.509z"/>
<g>
	<g>
		<g>
			<path fill="#FFFFFF" d="M85.665,241.688c-4.989,0-8.249,2.723-9.928,6.045c-1.433-3.588-3.607-6.045-8.941-6.045
				c-5.136,0-8.15,2.592-10.078,5.979h-0.099v-4.984H44.667v36.344h12.349v-19.268c0-4.453,1.63-6.113,4.198-6.113
				c2.174,0,3.31,1.197,3.31,4.852v20.529h11.955v-19.268c0-4.453,1.63-6.113,4.198-6.113c2.174,0,3.309,1.197,3.309,4.852v20.529
				h12.349v-25.049C96.333,245.141,91.591,241.688,85.665,241.688z"/>
		</g>
		<g>
			<path fill="#FFFFFF" d="M117.077,241.221c-12.152,0-19.263,7.043-19.263,19.6c0,13.287,7.409,19.666,20.401,19.666
				c5.678,0,9.928-1.197,13.089-3.322c3.162-2.127,5.235-5.248,6.173-9.035h-13.139c-1.332,2.258-3.208,3.189-6.421,3.189
				c-5.432,0-7.458-3.988-7.458-6.58h27.167C137.822,246.604,129.029,241.221,117.077,241.221z M110.458,256.368
				c0.643-4.582,3.112-6.377,7.409-6.377c4.248,0,7.064,2.459,7.311,6.377H110.458z"/>
		</g>
		<g>
			<path fill="#FFFFFF" d="M180.303,241.688c-4.989,0-8.25,2.723-9.931,6.045c-1.431-3.588-3.605-6.045-8.941-6.045
				c-5.136,0-8.148,2.592-10.076,5.979h-0.099v-4.984h-11.955v36.344h12.349v-19.268c0-4.453,1.632-6.113,4.201-6.113
				c2.172,0,3.31,1.197,3.31,4.852v20.529h11.952v-19.268c0-4.453,1.63-6.113,4.201-6.113c2.172,0,3.31,1.197,3.31,4.852v20.529
				h12.349v-25.049C190.972,245.141,186.229,241.688,180.303,241.688z"/>
		</g>
		<g>
			<path fill="#FFFFFF" d="M216.11,241.688c-5.038,0-8.594,1.66-10.719,5.113h-0.098v-16.873h-12.349v49.098h11.954v-3.854h0.099
				c2.224,3.453,5.631,5.314,11.112,5.314c8.002,0,15.362-5.914,15.362-19.4S224.112,241.688,216.11,241.688z M212.059,269.325
				c-4.739,0-6.766-3.057-6.766-8.238c0-5.115,2.026-8.238,6.817-8.238c4.445,0,6.718,3.588,6.718,8.238
				C218.829,265.872,216.851,269.325,212.059,269.325z"/>
		</g>
		<g>
			<g>
				<path fill="#FFFFFF" d="M321.368,241.688c-5.93,0-9.882,3.188-11.165,5.514h-0.099v-4.52H298.15v36.344H310.5v-16.742
					c0-6.047,2.468-8.639,5.73-8.639c2.913,0,4.74,1.994,4.74,6.578v18.803h12.349v-23.121
					C333.32,245.805,328.183,241.688,321.368,241.688z"/>
			</g>
			<g>
				<path fill="#FFFFFF" d="M296.276,255.836c0-10.828-4.988-14.615-17.584-14.615c-6.52,0-11.016,0.666-14.03,2.527
					c-1.893,1.189-3.198,2.818-4.095,5.062v-6.727c-1.334-0.266-2.719-0.396-4.053-0.396c-4.248,0-8.298,2.324-11.509,7.971h-0.099
					v-6.977h-11.955v36.344h12.352v-13.621c0-7.84,4.69-9.766,9.086-9.766c2.174,0,4.001,0.598,6.178,1.328v-3.256h11.11
					c0.594-3.521,3.408-4.117,6.225-4.117c3.507,0,5.728,1.129,5.728,3.52c0,1.994-0.84,2.791-3.31,2.99l-10.421,0.664
					c-9.138,0.531-12.644,4.783-12.644,11.428c0,9.301,5.234,12.291,13.533,12.291c6.569,0,10.768-1.596,13.535-5.049
					c0.047,1.328,0.443,3.588,0.443,3.588l11.715-0.004c0,0,0-2.855,0-5.645L296.276,255.836z M283.927,264.077
					c0,6.244-4.595,7.641-8.743,7.641c-3.063,0-4.593-1.594-4.593-4.119c0-2.326,1.086-3.324,3.356-3.588
					c4.397-0.531,7.906-0.932,9.979-1.529V264.077z"/>
			</g>
		</g>
	</g>
	<g>
		<path fill="#FFFFFF" d="M165.285,136.352l7.146,12.598l0.148-0.249c-1.937-13.494-1.086-27.75,6.699-40.891
			c8.081-13.646,14.895-12.991,22.207-7.585c-1.886-10.812-1.396-23.457,3.455-34.855l-16.176-28.019L89.596,209.12h81.499
			l-23.917-42.191L165.285,136.352z"/>
		<path fill="#FFFFFF" d="M226.458,101.935l0.01-0.006c0,0-0.127-0.236-0.329-0.549l-1.086-1.881
			c-0.424-0.73-0.924-1.293-1.479-1.671c-2.17-1.485-5.142,0.017-7.337,3.726c-4.374,7.474-3.591,16.237,2.392,26.789l45.776,80.774
			l23.987,0.016L226.458,101.935z"/>
		<path fill="#FFFFFF" d="M200.636,155.219c-3.04-5.356-5.582-7.849-8-7.849c-1.783,0-3.373,1.284-5.008,4.043
			c-4.399,7.425-3.618,16.189,2.39,26.794l17.53,30.912h23.584L200.636,155.219z"/>
	</g>
</g>
<path fill="#9D9D9C" d="M-67.456,112.561"/>
<path fill="#9D9D9C" d="M-58.478,112.561"/>
</svg>
